<svg xmlns="http://www.w3.org/2000/svg" viewBox="0 0 32 32" width="32" height="32">
  <!-- Background circle -->
  <circle cx="16" cy="16" r="15" fill="#3B82F6" stroke="#1E40AF" stroke-width="2"/>
  
  <!-- Airplane silhouette -->
  <path d="M8 16 L12 14 L14 12 L18 12 L20 14 L24 16 L20 18 L18 20 L14 20 L12 18 Z" 
        fill="white" opacity="0.9"/>
  
  <!-- Wellness heart symbol -->
  <path d="M16 24 C16 24 12 20 12 17 C12 15 14 15 16 17 C18 15 20 15 20 17 C20 20 16 24 16 24 Z" 
        fill="#EF4444" opacity="0.8"/>
  
  <!-- Subtle brain wave lines -->
  <path d="M6 8 Q8 10 6 12 Q8 14 6 16 Q8 18 6 20 Q8 22 6 24" 
        stroke="white" stroke-width="1" fill="none" opacity="0.6"/>
  <path d="M26 8 Q24 10 26 12 Q24 14 26 16 Q24 18 26 20 Q24 22 26 24" 
        stroke="white" stroke-width="1" fill="none" opacity="0.6"/>
</svg>
